<?xml version="1.0" encoding="UTF-8" standalone="no"?>
<!DOCTYPE svg PUBLIC "-//W3C//DTD SVG 1.1//EN" "http://www.w3.org/Graphics/SVG/1.1/DTD/svg11.dtd">
<svg width="100%" height="100%" viewBox="0 0 1040 1039" version="1.1" xmlns="http://www.w3.org/2000/svg" xmlns:xlink="http://www.w3.org/1999/xlink" xml:space="preserve" xmlns:serif="http://www.serif.com/" style="fill-rule:evenodd;clip-rule:evenodd;stroke-linejoin:round;stroke-miterlimit:2;">
    <g transform="matrix(1,0,0,1,-440.304,-20.8662)">
        <g transform="matrix(0.10839,0,0,0.10839,877.742,427.901)">
            <path d="M-3501.49,3234.54C-3842.88,2575.4 -4035.78,1827.16 -4035.78,1034.22C-4035.78,241.28 -3842.88,-506.962 -3501.49,-1166.1L-3493.49,-1161.48C-3834.1,-503.706 -4026.56,242.959 -4026.56,1034.22C-4026.56,1825.48 -3834.1,2572.15 -3493.49,3229.92L-3501.49,3234.54ZM-3276.34,-1554.95C-2461.03,-2822.26 -1065.17,-3681.36 534.238,-3755.28L534.238,-3746.05C-1061.76,-3672.14 -2454.64,-2814.89 -3268.35,-1550.33L-3276.34,-1554.95ZM983.565,-3755.28C2582.97,-3681.36 3978.83,-2822.26 4794.15,-1554.95L4786.15,-1550.33C3972.44,-2814.89 2579.56,-3672.14 983.565,-3746.05L983.565,-3755.28ZM5019.29,-1166.1C5360.68,-506.962 5553.59,241.28 5553.59,1034.22C5553.59,1827.16 5360.68,2575.4 5019.29,3234.54L5011.29,3229.92C5351.9,2572.15 5544.36,1825.48 5544.36,1034.22C5544.36,242.959 5351.9,-503.706 5011.29,-1161.48L5019.29,-1166.1ZM4794.15,3623.39C3978.83,4890.7 2582.97,5749.8 983.565,5823.72L983.565,5814.49C2579.56,5740.58 3972.44,4883.33 4786.15,3618.77L4794.15,3623.39ZM534.238,5823.72C-1065.17,5749.8 -2461.03,4890.7 -3276.34,3623.39L-3268.35,3618.77C-2454.64,4883.33 -1061.76,5740.58 534.238,5814.49L534.238,5823.72ZM-3204.82,3063.26C-3517.27,2454.64 -3693.64,1764.86 -3693.64,1034.22C-3693.64,303.578 -3517.27,-386.196 -3204.82,-994.816L-3196.82,-990.198C-3508.49,-382.94 -3684.41,305.258 -3684.41,1034.22C-3684.41,1763.18 -3508.49,2451.38 -3196.82,3058.64L-3204.82,3063.26ZM-2979.68,-1383.67C-2224.08,-2548.92 -938.658,-3339.39 534.238,-3412.74L534.238,-3403.5C-935.246,-3330.17 -2217.69,-2541.55 -2971.68,-1379.05L-2979.68,-1383.67ZM983.565,-3412.74C2456.46,-3339.39 3741.88,-2548.92 4497.48,-1383.67L4489.48,-1379.05C3735.49,-2541.55 2453.05,-3330.17 983.565,-3403.5L983.565,-3412.74ZM4722.62,-994.816C5035.07,-386.196 5211.44,303.578 5211.44,1034.22C5211.44,1764.86 5035.07,2454.64 4722.62,3063.26L4714.62,3058.64C5026.29,2451.38 5202.21,1763.18 5202.21,1034.22C5202.21,305.258 5026.29,-382.94 4714.62,-990.198L4722.62,-994.816ZM4497.48,3452.11C3741.88,4617.36 2456.46,5407.83 983.565,5481.18L983.565,5471.94C2453.05,5398.61 3735.49,4609.99 4489.48,3447.49L4497.48,3452.11ZM534.238,5481.18C-938.658,5407.83 -2224.08,4617.36 -2979.68,3452.11L-2971.68,3447.49C-2217.69,4609.99 -935.246,5398.61 534.238,5471.94L534.238,5481.18ZM-2908.1,2891.94C-3191.63,2333.87 -3351.49,1702.57 -3351.49,1034.22C-3351.49,365.876 -3191.63,-265.426 -2908.1,-823.503L-2900.1,-818.883C-3182.85,-262.169 -3342.26,367.556 -3342.26,1034.22C-3342.26,1700.88 -3182.85,2330.61 -2900.1,2887.32L-2908.1,2891.94ZM-2682.96,-1212.36C-1987.15,-2275.59 -812.147,-2997.45 534.238,-3070.12L534.238,-3060.88C-808.735,-2988.23 -1980.77,-2268.22 -2674.96,-1207.74L-2682.96,-1212.36ZM983.565,-3070.12C2329.95,-2997.45 3504.96,-2275.59 4200.76,-1212.36L4192.76,-1207.74C3498.57,-2268.22 2326.54,-2988.23 983.565,-3060.88L983.565,-3070.12ZM4425.9,-823.503C4709.43,-265.426 4869.29,365.876 4869.29,1034.22C4869.29,1702.57 4709.43,2333.87 4425.9,2891.94L4417.9,2887.32C4700.65,2330.61 4860.07,1700.88 4860.07,1034.22C4860.07,367.556 4700.65,-262.169 4417.9,-818.883L4425.9,-823.503ZM4200.76,3280.8C3504.96,4344.03 2329.95,5065.89 983.565,5138.56L983.565,5129.32C2326.54,5056.67 3498.57,4336.66 4192.76,3276.18L4200.76,3280.8ZM534.238,5138.56C-812.147,5065.89 -1987.15,4344.03 -2682.96,3280.8L-2674.96,3276.18C-1980.77,4336.66 -808.735,5056.67 534.238,5129.32L534.238,5138.56ZM-2611.3,2720.59C-2865.96,2213.09 -3009.34,1640.27 -3009.34,1034.22C-3009.34,428.174 -2865.96,-144.648 -2611.3,-652.147L-2603.3,-647.525C-2857.18,-141.391 -3000.11,429.854 -3000.11,1034.22C-3000.11,1638.59 -2857.18,2209.83 -2603.3,2715.97L-2611.3,2720.59ZM-2386.16,-1041C-1750.27,-2002.25 -685.641,-2655.55 534.238,-2727.42L534.238,-2718.18C-682.23,-2646.33 -1743.88,-1994.88 -2378.16,-1036.38L-2386.16,-1041ZM983.565,-2727.42C2203.44,-2655.55 3268.07,-2002.25 3903.96,-1041L3895.96,-1036.38C3261.68,-1994.88 2200.03,-2646.33 983.565,-2718.18L983.565,-2727.42ZM4129.1,-652.147C4383.76,-144.648 4527.14,428.174 4527.14,1034.22C4527.14,1640.27 4383.76,2213.09 4129.1,2720.59L4121.1,2715.97C4374.98,2209.83 4517.92,1638.59 4517.92,1034.22C4517.92,429.854 4374.98,-141.391 4121.1,-647.525L4129.1,-652.147ZM3903.96,3109.44C3268.07,4070.69 2203.44,4723.99 983.565,4795.86L983.565,4786.62C2200.03,4714.77 3261.68,4063.32 3895.96,3104.82L3903.96,3109.44ZM534.238,4795.86C-685.641,4723.99 -1750.27,4070.69 -2386.16,3109.44L-2378.16,3104.82C-1743.88,4063.32 -682.23,4714.77 534.238,4786.62L534.238,4795.86ZM-2314.4,2549.18C-2540.25,2092.3 -2667.19,1577.97 -2667.19,1034.22C-2667.19,490.472 -2540.25,-23.862 -2314.4,-480.734L-2306.4,-476.111C-2531.46,-20.604 -2657.97,492.151 -2657.97,1034.22C-2657.97,1576.29 -2531.46,2089.05 -2306.4,2544.55L-2314.4,2549.18ZM-2089.27,-869.59C-1513.42,-1728.91 -559.141,-2313.69 534.238,-2384.61L534.238,-2375.36C-555.731,-2304.48 -1507.04,-1721.54 -2081.26,-864.967L-2089.27,-869.59ZM983.565,-2384.61C2076.94,-2313.69 3031.22,-1728.91 3607.07,-869.59L3599.06,-864.967C3024.84,-1721.54 2073.53,-2304.48 983.565,-2375.36L983.565,-2384.61ZM3832.21,-480.734C4058.05,-23.862 4184.99,490.472 4184.99,1034.22C4184.99,1577.97 4058.05,2092.3 3832.21,2549.18L3824.2,2544.55C4049.27,2089.05 4175.77,1576.29 4175.77,1034.22C4175.77,492.151 4049.27,-20.604 3824.2,-476.111L3832.21,-480.734ZM3607.07,2938.03C3031.22,3797.35 2076.94,4382.13 983.565,4453.05L983.565,4443.81C2073.53,4372.92 3024.84,3789.98 3599.06,2933.41L3607.07,2938.03ZM534.238,4453.05C-559.141,4382.13 -1513.42,3797.35 -2089.27,2938.03L-2081.26,2933.41C-1507.04,3789.98 -555.731,4372.92 534.238,4443.81L534.238,4453.05ZM-2017.38,2377.69C-2214.48,1971.5 -2325.04,1515.67 -2325.04,1034.22C-2325.04,552.769 -2214.48,96.938 -2017.38,-309.247L-2009.37,-304.621C-2205.7,100.195 -2315.82,554.449 -2315.82,1034.22C-2315.82,1513.99 -2205.7,1968.25 -2009.37,2373.06L-2017.38,2377.69ZM-1792.25,-698.104C-1276.64,-1455.56 -432.652,-1971.9 534.238,-2041.65L534.238,-2032.4C-429.241,-1962.69 -1270.25,-1448.19 -1784.24,-693.479L-1792.25,-698.104ZM983.565,-2041.65C1950.45,-1971.9 2794.44,-1455.56 3310.05,-698.104L3302.04,-693.479C2788.06,-1448.19 1947.04,-1962.69 983.565,-2032.4L983.565,-2041.65ZM3535.18,-309.247C3732.28,96.938 3842.85,552.769 3842.85,1034.22C3842.85,1515.67 3732.28,1971.5 3535.18,2377.69L3527.17,2373.06C3723.5,1968.25 3833.62,1513.99 3833.62,1034.22C3833.62,554.449 3723.5,100.195 3527.17,-304.621L3535.18,-309.247ZM3310.05,2766.55C2794.44,3524 1950.45,4040.34 983.565,4110.09L983.565,4100.84C1947.04,4031.13 2788.06,3516.63 3302.04,2761.92L3310.05,2766.55ZM534.238,4110.09C-432.652,4040.34 -1276.64,3524 -1792.25,2766.55L-1784.24,2761.92C-1270.25,3516.63 -429.241,4031.13 534.238,4100.84L534.238,4110.09ZM-1720.17,2206.1C-1888.64,1850.69 -1982.9,1453.37 -1982.9,1034.22C-1982.9,615.067 -1888.64,217.755 -1720.17,-137.656L-1712.16,-133.027C-1879.85,221.013 -1973.67,616.747 -1973.67,1034.22C-1973.67,1451.69 -1879.85,1847.43 -1712.16,2201.47L-1720.17,2206.1ZM-1495.05,-526.516C-1039.93,-1182.21 -306.176,-1630.19 534.238,-1698.49L534.238,-1689.23C-302.766,-1620.98 -1033.55,-1174.84 -1487.03,-521.887L-1495.05,-526.516ZM983.565,-1698.49C1823.98,-1630.19 2557.73,-1182.21 3012.85,-526.516L3004.83,-521.887C2551.35,-1174.84 1820.57,-1620.98 983.565,-1689.23L983.565,-1698.49ZM3237.98,-137.656C3406.44,217.755 3500.7,615.067 3500.7,1034.22C3500.7,1453.37 3406.44,1850.69 3237.98,2206.1L3229.96,2201.47C3397.65,1847.43 3491.47,1451.69 3491.47,1034.22C3491.47,616.747 3397.65,221.013 3229.96,-133.027L3237.98,-137.656ZM3012.85,2594.96C2557.73,3250.65 1823.98,3698.64 983.565,3766.93L983.565,3757.67C1820.57,3689.42 2551.35,3243.28 3004.83,2590.33L3012.85,2594.96ZM534.238,3766.93C-306.176,3698.64 -1039.93,3250.65 -1495.05,2594.96L-1487.03,2590.33C-1033.55,3243.28 -302.766,3689.42 534.238,3757.67L534.238,3766.93ZM-1422.71,2034.36C-1562.68,1729.84 -1640.75,1391.08 -1640.75,1034.22C-1640.75,677.365 -1562.68,338.6 -1422.71,34.083L-1414.69,38.716C-1553.89,341.859 -1631.52,679.045 -1631.52,1034.22C-1631.52,1389.39 -1553.89,1726.58 -1414.69,2029.73L-1422.71,2034.36ZM-1197.59,-354.781C-803.337,-908.857 -179.723,-1288.61 534.238,-1355.03L534.238,-1345.76C-176.313,-1279.4 -796.959,-901.486 -1189.57,-350.148L-1197.59,-354.781ZM983.565,-1355.03C1697.53,-1288.61 2321.14,-908.857 2715.39,-354.781L2707.37,-350.148C2314.76,-901.486 1694.12,-1279.4 983.565,-1345.76L983.565,-1355.03ZM2940.52,34.083C3080.49,338.6 3158.55,677.365 3158.55,1034.22C3158.55,1391.08 3080.49,1729.84 2940.52,2034.36L2932.49,2029.73C3071.7,1726.58 3149.33,1389.39 3149.33,1034.22C3149.33,679.045 3071.7,341.859 2932.49,38.716L2940.52,34.083ZM2715.39,2423.22C2321.14,2977.3 1697.53,3357.05 983.565,3423.47L983.565,3414.2C1694.12,3347.84 2314.76,2969.93 2707.37,2418.59L2715.39,2423.22ZM534.238,3423.47C-179.723,3357.05 -803.337,2977.3 -1197.59,2423.22L-1189.57,2418.59C-796.959,2969.93 -176.313,3347.84 534.238,3414.2L534.238,3423.47ZM-1124.87,1862.4C-1236.57,1608.95 -1298.6,1328.77 -1298.6,1034.22C-1298.6,739.667 -1236.57,459.488 -1124.87,206.043L-1116.83,210.684C-1227.77,462.748 -1289.37,741.347 -1289.37,1034.22C-1289.37,1327.09 -1227.77,1605.69 -1116.83,1857.76L-1124.87,1862.4ZM-899.757,-182.826C-566.906,-635.501 -53.304,-947.207 534.238,-1011.13L534.238,-1001.85C-49.896,-938.005 -560.534,-628.13 -891.719,-178.185L-899.757,-182.826ZM983.565,-1011.13C1571.11,-947.207 2084.71,-635.501 2417.56,-182.826L2409.52,-178.185C2078.34,-628.13 1567.7,-938.005 983.565,-1001.85L983.565,-1011.13ZM2642.67,206.043C2754.37,459.488 2816.4,739.667 2816.4,1034.22C2816.4,1328.77 2754.37,1608.95 2642.67,1862.4L2634.64,1857.76C2745.58,1605.69 2807.18,1327.09 2807.18,1034.22C2807.18,741.347 2745.58,462.748 2634.64,210.684L2642.67,206.043ZM2417.56,2251.27C2084.71,2703.94 1571.11,3015.65 983.565,3079.57L983.565,3070.29C1567.7,3006.45 2078.34,2696.57 2409.52,2246.63L2417.56,2251.27ZM534.238,3079.57C-53.304,3015.65 -566.906,2703.94 -899.757,2251.27L-891.719,2246.63C-560.534,2696.57 -49.896,3006.45 534.238,3070.29L534.238,3079.57ZM-826.407,1690.08C-910.198,1487.99 -956.452,1266.46 -956.452,1034.22C-956.452,801.977 -910.198,580.451 -826.407,378.361L-818.347,383.015C-901.392,583.715 -947.226,803.657 -947.226,1034.22C-947.226,1264.78 -901.392,1484.73 -818.347,1685.43L-826.407,1690.08ZM-601.308,-10.516C-330.729,-362.15 73.052,-606.085 534.238,-666.524L534.238,-657.218C76.458,-596.892 -324.365,-354.779 -593.249,-5.863L-601.308,-10.516ZM983.565,-666.524C1444.75,-606.085 1848.53,-362.15 2119.11,-10.516L2111.05,-5.863C1842.17,-354.779 1441.35,-596.892 983.565,-657.218L983.565,-666.524ZM2344.21,378.361C2428,580.451 2474.25,801.977 2474.25,1034.22C2474.25,1266.46 2428,1487.99 2344.21,1690.08L2336.15,1685.43C2419.2,1484.73 2465.03,1264.78 2465.03,1034.22C2465.03,803.657 2419.2,583.715 2336.15,383.015L2344.21,378.361ZM2119.11,2078.96C1848.53,2430.59 1444.75,2674.53 983.565,2734.97L983.565,2725.66C1441.35,2665.33 1842.17,2423.22 2111.05,2074.3L2119.11,2078.96ZM534.238,2734.97C73.052,2674.53 -330.729,2430.59 -601.308,2078.96L-593.249,2074.3C-324.365,2423.22 76.458,2665.33 534.238,2725.66L534.238,2734.97ZM-526.851,1517.13C-583.377,1366.88 -614.304,1204.13 -614.304,1034.22C-614.304,864.308 -583.377,701.563 -526.851,551.31L-518.751,555.987C-574.555,704.832 -605.078,865.99 -605.078,1034.22C-605.078,1202.45 -574.555,1363.61 -518.751,1512.45L-526.851,1517.13ZM-301.779,162.417C-94.977,-88.83 199.28,-265.442 534.238,-320.662L534.238,-311.31C202.681,-256.267 -88.629,-81.461 -293.68,167.093L-301.779,162.417ZM983.565,-320.662C1318.52,-265.442 1612.78,-88.83 1819.58,162.417L1811.48,167.093C1606.43,-81.461 1315.12,-256.267 983.565,-311.31L983.565,-320.662ZM2044.65,551.31C2101.18,701.563 2132.11,864.308 2132.11,1034.22C2132.11,1204.13 2101.18,1366.88 2044.65,1517.13L2036.55,1512.45C2092.36,1363.61 2122.88,1202.45 2122.88,1034.22C2122.88,865.99 2092.36,704.832 2036.55,555.987L2044.65,551.31ZM1819.58,1906.02C1612.78,2157.27 1318.52,2333.88 983.565,2389.1L983.565,2379.75C1315.12,2324.71 1606.43,2149.9 1811.48,1901.35L1819.58,1906.02ZM534.238,2389.1C199.28,2333.88 -94.977,2157.27 -301.779,1906.02L-293.68,1901.35C-88.629,2149.9 202.681,2324.71 534.238,2379.75L534.238,2389.1ZM-225.076,1342.9C-255.665,1245.42 -272.156,1141.73 -272.156,1034.22C-272.156,926.708 -255.665,823.016 -225.076,725.54L-216.886,730.269C-246.807,826.3 -262.93,928.392 -262.93,1034.22C-262.93,1140.05 -246.807,1242.14 -216.886,1338.17L-225.076,1342.9ZM-0.06,336.615C139.98,184.354 325.197,74.284 534.238,27.755L534.238,37.21C328.584,83.424 146.299,191.716 8.128,341.342L-0.06,336.615ZM983.565,27.755C1192.61,74.284 1377.82,184.354 1517.86,336.615L1509.67,341.342C1371.5,191.716 1189.22,83.424 983.565,37.21L983.565,27.755ZM1742.88,725.54C1773.47,823.016 1789.96,926.708 1789.96,1034.22C1789.96,1141.73 1773.47,1245.42 1742.88,1342.9L1734.69,1338.17C1764.61,1242.14 1780.73,1140.05 1780.73,1034.22C1780.73,928.392 1764.61,826.3 1734.69,730.269L1742.88,725.54ZM1517.86,1731.83C1377.82,1884.09 1192.61,1994.16 983.565,2040.69L983.565,2031.23C1189.22,1985.02 1371.5,1876.73 1509.67,1727.1L1517.86,1731.83ZM534.238,2040.69C325.197,1994.16 139.98,1884.09 -0.06,1731.83L8.128,1727.1C146.299,1876.73 328.584,1985.02 534.238,2031.23L534.238,2040.69ZM82.477,1165.34C74.283,1122.88 69.992,1079.05 69.992,1034.22C69.992,989.392 74.283,945.557 82.477,903.106L90.939,907.992C83.244,948.898 79.218,991.093 79.218,1034.22C79.218,1077.35 83.244,1119.54 90.939,1160.45L82.477,1165.34ZM307.349,514.097C373.213,456.857 450.038,411.907 534.238,382.836L534.238,392.606C453.366,420.957 379.46,464.176 315.805,518.979L307.349,514.097ZM983.565,382.836C1067.77,411.907 1144.59,456.857 1210.45,514.097L1202,518.979C1138.34,464.176 1064.44,420.957 983.565,392.606L983.565,382.836ZM1435.33,903.106C1443.52,945.557 1447.81,989.392 1447.81,1034.22C1447.81,1079.05 1443.52,1122.88 1435.33,1165.34L1426.86,1160.45C1434.56,1119.54 1438.58,1077.35 1438.58,1034.22C1438.58,991.093 1434.56,948.898 1426.86,907.992L1435.33,903.106ZM1210.45,1554.34C1144.59,1611.58 1067.77,1656.53 983.565,1685.61L983.565,1675.84C1064.44,1647.48 1138.34,1604.26 1202,1549.46L1210.45,1554.34ZM534.238,1685.61C450.038,1656.53 373.213,1611.58 307.349,1554.34L315.805,1549.46C379.46,1604.26 453.366,1647.48 534.238,1675.84L534.238,1685.61Z"/>
        </g>
    </g>
</svg>
