<?xml version="1.0" encoding="UTF-8" standalone="no"?>
<!DOCTYPE svg PUBLIC "-//W3C//DTD SVG 1.1//EN" "http://www.w3.org/Graphics/SVG/1.1/DTD/svg11.dtd">
<svg width="100%" height="100%" viewBox="0 0 99 133" version="1.1" xmlns="http://www.w3.org/2000/svg" xmlns:xlink="http://www.w3.org/1999/xlink" xml:space="preserve" xmlns:serif="http://www.serif.com/" style="fill-rule:evenodd;clip-rule:evenodd;stroke-linejoin:round;stroke-miterlimit:2;">
    <g transform="matrix(1,0,0,1,-1770.75,-474.293)">
        <g transform="matrix(1.06469,0,0,0.963167,-93.032,191.623)">
            <path d="M1842.85,362.043C1842.85,362.043 1786.12,293.48 1788.17,293.48L1839.12,293.48C1841.18,293.48 1842.85,295.323 1842.85,297.594L1842.85,362.043ZM1842.85,362.043L1842.85,426.493C1842.85,428.764 1841.18,430.607 1839.12,430.607L1788.17,430.607C1786.12,430.607 1842.85,362.043 1842.85,362.043ZM1769.38,293.48L1824.06,362.043L1769.38,430.607L1750.6,430.607C1748.55,430.607 1805.28,362.043 1805.28,362.043C1805.28,362.043 1748.55,293.48 1750.6,293.48L1769.38,293.48Z" style="fill:white;"/>
        </g>
    </g>
</svg>
